# xmcd
#
# Track frame offsets:
#	150
#	21450
#	43482
#	69095
#	85230
#	110547
#	129507
#	150897
#	171087
#	188087
#
# Disc length: 2799 seconds
#
# Revision: 1
# Processed by: cddbd v1.5.1PL0 Copyright (c) Steve Scherf et al.
# Submitted via: CDex 1.50Beta5
#
DISCID=7c0aed0a
DTITLE=和田アキ子 - 愛,とどきますか
DYEAR=1992
DGENRE=Pop
TTITLE0=愛,とどきますか
TTITLE1=第二幕
TTITLE2=死ぬまで忘れへん
TTITLE3=惚れたはれたの前に
TTITLE4=LAST LOVE
TTITLE5=太陽は振りむかない
TTITLE6=恋は涙の如く
TTITLE7=涙が止まらない
TTITLE8=ロンリーライツ
TTITLE9=ノーコメント
EXTD=
EXTT0=
EXTT1=
EXTT2=
EXTT3=
EXTT4=
EXTT5=
EXTT6=
EXTT7=
EXTT8=
EXTT9=
PLAYORDER=
